<svg width="113" height="27" viewBox="0 0 113 27" fill="none" xmlns="http://www.w3.org/2000/svg">
<g clip-path="url(#clip0_522_227)">
<path d="M111.112 25.2571C111.181 25.2578 111.25 25.2445 111.313 25.218C111.377 25.1916 111.435 25.1526 111.483 25.1034C111.53 25.0542 111.567 24.9959 111.591 24.9321C111.615 24.8683 111.625 24.8004 111.621 24.7326C111.621 24.3606 111.393 24.1829 110.923 24.1829H110.165V26.1304H110.45V25.2815H110.801L110.809 25.2918L111.353 26.1304H111.658L111.072 25.2624L111.112 25.2571ZM110.782 25.062H110.451V24.4036H110.87C111.087 24.4036 111.334 24.4383 111.334 24.7165C111.334 25.0364 111.084 25.062 110.78 25.062" fill="#11AABB"/>
<path d="M0 3.96242H4.20991V19.007H12.0037V22.8185H0V3.96242Z" fill="#11AABB"/>
<path d="M13.8649 10.0336H17.9093V22.8115H13.8649V10.0336ZM15.8871 3.68095C16.3511 3.68104 16.8047 3.8161 17.1905 4.06907C17.5762 4.32203 17.8769 4.68154 18.0544 5.10214C18.2319 5.52273 18.2783 5.98552 18.1877 6.43199C18.0971 6.87845 17.8737 7.28854 17.5455 7.6104C17.2174 7.93227 16.7993 8.15144 16.3443 8.24022C15.8892 8.329 15.4174 8.2834 14.9888 8.10917C14.5601 7.93495 14.1937 7.63993 13.9359 7.26142C13.6781 6.88291 13.5406 6.43791 13.5406 5.98269C13.5406 5.68038 13.6013 5.38104 13.7192 5.10176C13.8371 4.82247 14.01 4.56871 14.2279 4.35497C14.4458 4.14123 14.7045 3.97169 14.9892 3.85605C15.2739 3.7404 15.579 3.6809 15.8871 3.68095Z" fill="#11AABB"/>
<path d="M34.8273 3.95953H38.8716V15.2285L43.4552 10.0278H48.4137L43.1055 15.9435L48.3021 22.8169H43.2189L38.9256 16.5007H38.8725V22.8161H34.8281L34.8273 3.95953Z" fill="#11AABB"/>
<path d="M20.1518 10.0348H24.0356V11.781H24.0908C24.4787 11.129 25.0399 10.5926 25.7144 10.229C26.3888 9.86549 27.1513 9.68849 27.9203 9.71695C32.0215 9.71695 32.7765 12.3642 32.7765 15.8034V22.8107H28.7321V16.5982C28.7321 15.1152 28.7043 13.209 26.6257 13.209C24.5235 13.209 24.1991 14.8238 24.1991 16.4903V22.809H20.1547L20.1518 10.0348Z" fill="#11AABB"/>
<path d="M56.9309 14.9363C56.9386 14.6144 56.8797 14.2943 56.7576 13.9954C56.6355 13.6965 56.4529 13.425 56.2207 13.1974C55.9886 12.9698 55.7117 12.7908 55.407 12.6712C55.1022 12.5517 54.7759 12.494 54.4478 12.5019C53.7412 12.4587 53.0456 12.6897 52.5109 13.1451C51.9763 13.6005 51.6455 14.2438 51.5898 14.9363H56.9309ZM60.3568 20.5986C59.6847 21.3982 58.8398 22.0411 57.8833 22.4808C56.9267 22.9205 55.8825 23.146 54.8261 23.1409C50.7818 23.1409 47.5438 20.4924 47.5438 16.3911C47.5438 12.2898 50.7814 9.64256 54.8261 9.64256C58.6063 9.64256 60.9769 12.2878 60.9769 16.3911V17.6352H51.5898C51.7067 18.3407 52.0795 18.9811 52.6396 19.4382C53.1998 19.8954 53.9094 20.1385 54.6378 20.1229C55.2135 20.1194 55.7791 19.9747 56.2832 19.702C56.7873 19.4293 57.2139 19.0372 57.5241 18.5614L60.3568 20.5986Z" fill="#11AABB"/>
<path d="M69.4068 13.1222C67.3847 13.1222 66.1714 14.4469 66.1714 16.3771C66.1714 18.3072 67.3842 19.6331 69.4068 19.6331C71.4294 19.6331 72.6453 18.3105 72.6453 16.3771C72.6453 14.4436 71.4315 13.1222 69.4068 13.1222ZM76.3686 22.809H72.6453V21.1144H72.5901C72.123 21.7308 71.5171 22.2331 70.8197 22.5821C70.1223 22.931 69.3522 23.1173 68.5693 23.1264C64.6834 23.1264 62.1237 20.375 62.1237 16.4841C62.1237 12.9106 64.3889 9.62933 68.1126 9.62933C69.7864 9.62933 71.3498 10.0786 72.2669 11.3239H72.32V3.95828H76.3681L76.3686 22.809Z" fill="#11AABB"/>
<path d="M103.672 22.8165H99.6274V16.6027C99.6274 15.121 99.6004 13.2136 97.5239 13.2136C95.4175 13.2136 95.0952 14.828 95.0952 16.4949V22.816H91.0508V10.0381H94.9334V11.7843H94.9877C95.3763 11.1326 95.9378 10.5964 96.6124 10.2329C97.287 9.86943 98.0494 9.69226 98.8185 9.72027C102.918 9.72027 103.673 12.3655 103.673 15.8067L103.672 22.8165ZM86.4875 8.29145C86.0233 8.29153 85.5695 8.15657 85.1835 7.90363C84.7975 7.65069 84.4966 7.29113 84.3189 6.87042C84.1412 6.44972 84.0946 5.98676 84.1851 5.54009C84.2756 5.09342 84.499 4.6831 84.8272 4.36103C85.1554 4.03895 85.5735 3.81958 86.0288 3.73065C86.484 3.64173 86.9559 3.68724 87.3848 3.86144C87.8137 4.03564 88.1803 4.3307 88.4383 4.70931C88.6962 5.08792 88.8339 5.53307 88.834 5.98848C88.8341 6.29085 88.7734 6.59028 88.6555 6.86966C88.5376 7.14904 88.3648 7.4029 88.1469 7.61675C87.929 7.8306 87.6703 8.00025 87.3856 8.11602C87.1009 8.23178 86.7957 8.2914 86.4875 8.29145ZM88.5096 22.8165H84.4611V10.0381H88.5096V22.8165ZM105.688 0.00165658H82.4288C81.9009 -0.00418821 81.3922 0.195828 81.0145 0.557754C80.6368 0.919679 80.4211 1.4139 80.4146 1.93182V24.8454C80.4209 25.3636 80.6365 25.8581 81.0141 26.2204C81.3918 26.5827 81.9006 26.7832 82.4288 26.7776H105.688C106.217 26.7842 106.727 26.5843 107.107 26.222C107.486 25.8597 107.703 25.3646 107.71 24.8454V1.93017C107.703 1.41122 107.485 0.916436 107.106 0.55452C106.727 0.192603 106.217 -0.00684162 105.688 2.66399e-06" fill="#11AABB"/>
<path d="M110.816 23.3153C110.324 23.32 109.854 23.5156 109.509 23.8594C109.163 24.2032 108.971 24.6673 108.973 25.15C108.975 25.6328 109.173 26.095 109.521 26.4355C109.87 26.7761 110.342 26.9673 110.834 26.9673C111.326 26.9673 111.798 26.7761 112.147 26.4355C112.496 26.095 112.693 25.6328 112.695 25.15C112.698 24.6673 112.505 24.2032 112.16 23.8594C111.814 23.5156 111.344 23.32 110.852 23.3153H110.816ZM110.816 26.7582C110.494 26.7635 110.176 26.6747 109.905 26.5032C109.634 26.3317 109.42 26.0851 109.292 25.7945C109.163 25.504 109.126 25.1826 109.183 24.8711C109.241 24.5595 109.392 24.2717 109.616 24.0441C109.84 23.8164 110.129 23.6592 110.444 23.5923C110.76 23.5253 111.088 23.5517 111.389 23.668C111.689 23.7843 111.947 23.9853 112.131 24.2457C112.315 24.506 112.416 24.8139 112.421 25.1306C112.421 25.1397 112.421 25.1484 112.421 25.1575C112.43 25.5728 112.271 25.9747 111.978 26.2747C111.685 26.5748 111.282 26.7484 110.859 26.7574H110.817" fill="#11AABB"/>
</g>
<defs>
<clipPath id="clip0_522_227">
<rect width="112.696" height="27" fill="white"/>
</clipPath>
</defs>
</svg>
