<svg width="25" height="24" viewBox="0 0 25 24" fill="none" xmlns="http://www.w3.org/2000/svg">
<path d="M6.768 9V7.308L2.652 7.428V0.539999H0.72V8.112C0.72 8.772 1.092 9.132 1.752 9.12L6.768 9ZM16.0921 9L13.6441 0.539999H9.67209L7.23609 9H9.19209L9.94809 6.288H13.3801L14.1361 9H16.0921ZM11.4121 1.02H11.9041L12.9121 4.608H10.4161L11.4121 1.02ZM16.4527 5.856C16.4527 7.968 17.7607 9.12 20.2687 9.12C22.7767 9.12 24.1087 7.968 24.1087 5.856V0.539999H22.1767V4.992C22.1767 6.504 22.0327 7.428 20.2687 7.428C18.5047 7.428 18.3847 6.504 18.3847 4.992V0.539999H16.4527V5.856ZM9.096 21L6.648 12.54H2.676L0.24 21H2.196L2.952 18.288H6.384L7.14 21H9.096ZM4.416 13.02H4.908L5.916 16.608H3.42L4.416 13.02ZM17.0707 21V19.308L12.9547 19.428V12.54H11.0227V20.112C11.0227 20.772 11.3947 21.132 12.0547 21.12L17.0707 21ZM16.8169 12.54V14.232H19.5889V21H21.5089V14.232H24.2689V12.54H16.8169Z" fill="#EFD967"/>
</svg>
